
<svg xmlns="http://www.w3.org/2000/svg" version="1.1" xmlns:xlink="http://www.w3.org/1999/xlink" preserveAspectRatio="none" x="0px" y="0px" width="48px" height="48px" viewBox="0 0 48 48">
<defs>
<g id="strB1_0_Layer0_0_FILL">
<path fill="#FFFFFF" fill-opacity="0" stroke="none" d="
M -24 -24
L -24 24 24 24 24 -24 -24 -24 Z"/>
</g>

<g id="strB1_0_Layer0_1_FILL">
<path fill="#000000" stroke="none" d="
M 4.7 4.5
L 3.15 4.5 6 11.65
Q 6.05 11.75 6.1 11.85 6.1 11.95 6.1 12 6.1 12.05 6.05 12.15 6.05 12.25 6 12.35 5.75 12.9 5.4 13.3 5.1 13.7 4.8 13.9 4.5 14.2 4.15 14.35 3.85 14.5 3.55 14.6
L 3.9 15.8
Q 4.2 15.75 4.65 15.55 5.15 15.35 5.65 14.9 6.15 14.45 6.55 13.85 6.95 13.2 7.4 12.3 7.8 11.35 8.3 10.05
L 10.4 4.5 8.95 4.5 7.4 9.05
Q 7.25 9.5 7.15 9.9 7 10.3 6.9 10.65
L 6.85 10.65
Q 6.75 10.3 6.65 9.9 6.5 9.5 6.4 9.1
L 4.7 4.5
M -8.05 -3.85
L -10.6 -3.85 -6.3 2.35 -10.8 8.75 -8.25 8.75 -6.45 5.9
Q -6.1 5.35 -5.75 4.85 -5.45 4.3 -5.1 3.75
L -5.05 3.75
Q -4.75 4.3 -4.4 4.85 -4.1 5.35 -3.7 5.9
L -1.85 8.75 0.75 8.75 -3.7 2.25 0.6 -3.85 -1.85 -3.85 -3.65 -1.15
Q -3.95 -0.65 -4.25 -0.15 -4.6 0.35 -4.9 0.95
L -4.95 0.95
Q -5.25 0.4 -5.6 -0.1 -5.9 -0.6 -6.25 -1.15
L -8.05 -3.85 Z"/>
</g>
</defs>

<g transform="matrix( 1, 0, 0, 1, 0,0) ">
<g transform="matrix( 1, 0, 0, 1, 24,24) ">
<use xlink:href="#strB1_0_Layer0_0_FILL"/>
</g>

<g transform="matrix( 1, 0, 0, 1, 24,22) ">
<use xlink:href="#strB1_0_Layer0_1_FILL"/>
</g>
</g>
</svg>
