
<svg xmlns="http://www.w3.org/2000/svg" version="1.1" xmlns:xlink="http://www.w3.org/1999/xlink" preserveAspectRatio="none" x="0px" y="0px" width="48px" height="48px" viewBox="0 0 48 48">
<defs>
<g id="strD3_0_Layer0_0_FILL">
<path fill="#FFFFFF" fill-opacity="0" stroke="none" d="
M -24 -24
L -24 24 24 24 24 -24 -24 -24 Z"/>
</g>

<g id="strD3_0_Layer0_1_FILL">
<path fill="#000000" stroke="none" d="
M -10.85 -11.6
Q -11.75 -11 -12.15 -9.85 -12.5 -8.7 -12.5 -7.2
L -12.5 -4.15
Q -12.45 -2.6 -13.1 -2 -13.75 -1.4 -15.25 -1.35
L -15.25 0.5
Q -13.75 0.55 -13.1 1.2 -12.5 1.85 -12.5 3.35
L -12.5 7.9
Q -12.5 10.45 -11.6 11.7 -10.65 12.95 -8.45 12.95
L -8 12.95 -8 11.15
Q -9.3 11.15 -9.85 10.45 -10.35 9.75 -10.35 7.95
L -10.35 3.4
Q -10.35 1.7 -10.95 0.75 -11.6 -0.25 -12.75 -0.4
L -12.75 -0.5
Q -11.55 -0.7 -10.95 -1.6 -10.35 -2.55 -10.35 -4.25
L -10.35 -7.3
Q -10.35 -9.1 -9.85 -9.8 -9.3 -10.5 -8 -10.45
L -8 -12.25 -8.45 -12.25
Q -9.95 -12.25 -10.85 -11.6
M 1.35 -1.15
Q 1.05 -0.65 0.75 -0.15 0.4 0.35 0.1 0.95
L 0.05 0.95
Q -0.25 0.4 -0.6 -0.1 -0.9 -0.6 -1.25 -1.15
L -3.05 -3.85 -5.6 -3.85 -1.3 2.35 -5.8 8.75 -3.25 8.75 -1.45 5.9
Q -1.1 5.35 -0.75 4.85 -0.45 4.3 -0.1 3.75
L -0.05 3.75
Q 0.25 4.3 0.6 4.85 0.9 5.35 1.3 5.9
L 3.15 8.75 5.75 8.75 1.3 2.25 5.6 -3.85 3.15 -3.85 1.35 -1.15
M 8 -10.45
Q 9.3 -10.5 9.85 -9.8 10.4 -9.1 10.35 -7.3
L 10.35 -4.15
Q 10.35 -2.5 10.95 -1.55 11.55 -0.65 12.75 -0.5
L 12.75 -0.4
Q 11.6 -0.25 10.95 0.75 10.35 1.7 10.35 3.4
L 10.35 7.95
Q 10.4 9.75 9.85 10.45 9.3 11.15 8 11.15
L 8 12.95 8.45 12.95
Q 10.65 12.95 11.6 11.7 12.55 10.45 12.5 7.9
L 12.5 3.35
Q 12.5 1.85 13.15 1.2 13.8 0.55 15.25 0.5
L 15.25 -1.35
Q 14.25 -1.4 13.65 -1.65 13.05 -1.95 12.75 -2.55 12.5 -3.15 12.5 -4.25
L 12.5 -7.2
Q 12.5 -8.7 12.15 -9.85 11.75 -11 10.85 -11.6 10 -12.25 8.45 -12.25
L 8 -12.25 8 -10.45 Z"/>
</g>
</defs>

<g transform="matrix( 1, 0, 0, 1, 0,0) ">
<g transform="matrix( 1, 0, 0, 1, 24,24) ">
<use xlink:href="#strD3_0_Layer0_0_FILL"/>
</g>

<g transform="matrix( 1, 0, 0, 1, 24,24) ">
<use xlink:href="#strD3_0_Layer0_1_FILL"/>
</g>
</g>
</svg>
