
<svg xmlns="http://www.w3.org/2000/svg" version="1.1" xmlns:xlink="http://www.w3.org/1999/xlink" preserveAspectRatio="none" x="0px" y="0px" width="48px" height="48px" viewBox="0 0 48 48">
<defs>
<g id="strA2_0_Layer0_0_FILL">
<path fill="#FFFFFF" fill-opacity="0" stroke="none" d="
M -24 -24
L -24 24 24 24 24 -24 -24 -24 Z"/>
</g>

<g id="strA2_0_Layer0_1_FILL">
<path fill="#000000" stroke="none" d="
M -13.05 -5.85
L -15.6 -5.85 -11.3 0.35 -15.8 6.75 -13.25 6.75 -11.45 3.9
Q -11.1 3.35 -10.75 2.85 -10.45 2.3 -10.1 1.75
L -10.05 1.75
Q -9.75 2.3 -9.4 2.85 -9.1 3.35 -8.7 3.9
L -6.85 6.75 -4.25 6.75 -8.7 0.25 -4.4 -5.85 -6.85 -5.85 -8.65 -3.15
Q -8.95 -2.65 -9.25 -2.15 -9.6 -1.65 -9.9 -1.05
L -9.95 -1.05
Q -10.25 -1.6 -10.6 -2.1 -10.9 -2.6 -11.25 -3.15
L -13.05 -5.85
M 15 1
L 15 -1 -1 -1 -1 1 15 1
M 11.25 8.5
L 11.25 7.3 3.15 7.3 3.15 8.85 8.9 8.85 8.9 8.9
Q 8.55 9.35 8.2 9.75 7.85 10.15 7.5 10.55
L 2.7 16.85 2.7 17.95 11.35 17.95 11.35 16.4 5.1 16.4 5.1 16.35
Q 5.5 15.95 5.8 15.55 6.15 15.15 6.5 14.7
L 11.25 8.5
M 4.15 -17.7
L 2.05 -17.7 6 -7.9
Q 6.05 -7.7 6.1 -7.6 6.1 -7.45 6.1 -7.35 6.1 -7.3 6.05 -7.2 6.05 -7.05 5.95 -6.9 5.6 -6.15 5.2 -5.6 4.75 -5.05 4.35 -4.75 3.9 -4.4 3.45 -4.15 3 -3.9 2.65 -3.8
L 3.1 -2.2
Q 3.5 -2.25 4.15 -2.55 4.75 -2.8 5.5 -3.45 6.15 -4 6.75 -4.85 7.3 -5.75 7.9 -7 8.45 -8.3 9.15 -10.1
L 12.05 -17.7 10 -17.7 7.9 -11.45
Q 7.7 -10.85 7.55 -10.3 7.35 -9.7 7.2 -9.2
L 7.15 -9.2
Q 7.05 -9.7 6.85 -10.3 6.65 -10.85 6.5 -11.4
L 4.15 -17.7 Z"/>
</g>
</defs>

<g transform="matrix( 1, 0, 0, 1, 0,0) ">
<g transform="matrix( 1, 0, 0, 1, 24,24) ">
<use xlink:href="#strA2_0_Layer0_0_FILL"/>
</g>

<g transform="matrix( 1, 0, 0, 1, 24,24) ">
<use xlink:href="#strA2_0_Layer0_1_FILL"/>
</g>
</g>
</svg>
