
<svg xmlns="http://www.w3.org/2000/svg" version="1.1" xmlns:xlink="http://www.w3.org/1999/xlink" preserveAspectRatio="none" x="0px" y="0px" width="48px" height="48px" viewBox="0 0 48 48">
<defs>
<g id="strF4_0_Layer0_0_FILL">
<path fill="#FFFFFF" fill-opacity="0" stroke="none" d="
M -24 -24
L -24 24 24 24 24 -24 -24 -24 Z"/>
</g>

<g id="strF4_0_Layer0_1_FILL">
<path fill="#000000" stroke="none" d="
M -11.9 -4.2
L -10.25 -4.2 -10.25 1.6
Q -10.25 2.5 -10.1 3.2 -9.9 3.9 -9.5 4.35 -9.15 4.75 -8.65 4.95 -8.1 5.15 -7.4 5.15 -6.85 5.15 -6.4 5.1 -6 5 -5.7 4.9
L -5.8 3.45
Q -5.95 3.5 -6.25 3.55 -6.55 3.6 -6.9 3.6 -7.7 3.6 -8.05 3.05 -8.35 2.5 -8.35 1.5
L -8.35 -4.2 -5.6 -4.2 -5.6 -5.7 -8.35 -5.7 -8.35 -8.75 -10.25 -8.25 -10.25 -5.7 -11.9 -5.7 -11.9 -4.2
M -20.6 -3.2
Q -21.3 -1.9 -21.3 -0.25 -21.3 1.35 -20.65 2.6 -20 3.8 -18.8 4.5 -17.65 5.15 -16 5.15 -14.95 5.15 -14.15 4.95 -13.35 4.75 -12.95 4.55
L -13.3 3.1
Q -13.7 3.3 -14.25 3.45 -14.85 3.6 -15.65 3.65 -16.75 3.65 -17.55 3.15 -18.4 2.65 -18.85 1.8 -19.35 0.9 -19.35 -0.35 -19.35 -1.45 -18.95 -2.4 -18.5 -3.3 -17.65 -3.85 -16.8 -4.35 -15.6 -4.35 -14.8 -4.35 -14.25 -4.2 -13.7 -4.05 -13.35 -3.85
L -12.9 -5.35
Q -13.3 -5.55 -14 -5.75 -14.75 -5.9 -15.6 -5.9 -17.35 -5.9 -18.65 -5.15 -19.9 -4.45 -20.6 -3.2
M 14.45 -5.7
L 12.3 -5.7 15.9 -0.5 12.15 4.95 14.25 4.95 15.8 2.55
Q 16.1 2.1 16.4 1.65 16.65 1.2 16.9 0.7
L 16.95 0.7
Q 17.25 1.2 17.55 1.65 17.8 2.1 18.1 2.55
L 19.65 4.95 21.9 4.95 18.15 -0.55 21.75 -5.7 19.65 -5.7 18.2 -3.45
Q 17.9 -3 17.65 -2.55 17.4 -2.15 17.15 -1.65
L 17.05 -1.65
Q 16.8 -2.1 16.55 -2.55 16.3 -2.95 16 -3.4
L 14.45 -5.7
M 3.95 -4.1
Q 3.7 -4.55 3.3 -4.95 2.85 -5.35 2.2 -5.65 1.55 -5.9 0.65 -5.95 -0.6 -5.95 -1.7 -5.25 -2.8 -4.6 -3.45 -3.35 -4.15 -2.1 -4.15 -0.3 -4.15 1.2 -3.55 2.35 -3 3.55 -2 4.2 -0.95 4.9 0.35 4.9 1.6 4.9 2.45 4.4 3.3 3.9 3.75 3.1
L 3.8 3.1 3.8 4.3
Q 3.8 5.65 3.35 6.5 2.9 7.3 2.15 7.65 1.35 8.05 0.35 8.05 -0.65 8 -1.4 7.8 -2.25 7.55 -2.75 7.2
L -3.25 8.65
Q -2.55 9.1 -1.65 9.3 -0.7 9.55 0.3 9.55 1.35 9.55 2.35 9.25 3.4 9 4.15 8.3 4.95 7.6 5.3 6.4 5.7 5.25 5.7 3.4
L 5.7 -2.75
Q 5.7 -3.75 5.7 -4.45 5.75 -5.15 5.75 -5.7
L 4.1 -5.7 4 -4.1 3.95 -4.1
M 3.65 -2.4
Q 3.75 -2.15 3.75 -1.95 3.8 -1.75 3.8 -1.5
L 3.8 0.4
Q 3.8 0.65 3.75 0.95 3.7 1.2 3.65 1.45 3.3 2.4 2.55 2.9 1.85 3.4 0.95 3.45 -0.1 3.4 -0.8 2.9 -1.5 2.4 -1.85 1.55 -2.2 0.65 -2.2 -0.4 -2.2 -2.25 -1.3 -3.35 -0.45 -4.4 0.95 -4.4 2.05 -4.4 2.7 -3.8 3.4 -3.25 3.65 -2.4 Z"/>
</g>
</defs>

<g transform="matrix( 1, 0, 0, 1, 0,0) ">
<g transform="matrix( 1, 0, 0, 1, 24,24) ">
<use xlink:href="#strF4_0_Layer0_0_FILL"/>
</g>

<g transform="matrix( 1, 0, 0, 1, 24,24) ">
<use xlink:href="#strF4_0_Layer0_1_FILL"/>
</g>
</g>
</svg>
