
<svg xmlns="http://www.w3.org/2000/svg" version="1.1" xmlns:xlink="http://www.w3.org/1999/xlink" preserveAspectRatio="none" x="0px" y="0px" width="48px" height="48px" viewBox="0 0 48 48">
<defs>
<g id="strB2_0_Layer0_0_FILL">
<path fill="#FFFFFF" fill-opacity="0" stroke="none" d="
M -24 -24
L -24 24 24 24 24 -24 -24 -24 Z"/>
</g>

<g id="strB2_0_Layer0_1_FILL">
<path fill="#000000" stroke="none" d="
M -8.05 -3.85
L -10.6 -3.85 -6.3 2.35 -10.8 8.75 -8.25 8.75 -6.45 5.9
Q -6.1 5.35 -5.75 4.85 -5.45 4.3 -5.1 3.75
L -5.05 3.75
Q -4.75 4.3 -4.4 4.85 -4.1 5.35 -3.7 5.9
L -1.85 8.75 0.75 8.75 -3.7 2.25 0.6 -3.85 -1.85 -3.85 -3.65 -1.15
Q -3.95 -0.65 -4.25 -0.15 -4.6 0.35 -4.9 0.95
L -4.95 0.95
Q -5.25 0.4 -5.6 -0.1 -5.9 -0.6 -6.25 -1.15
L -8.05 -3.85
M 4.7 -12.5
L 3.15 -12.5 6 -5.35
Q 6.05 -5.25 6.1 -5.15 6.1 -5.05 6.1 -5 6.1 -4.95 6.05 -4.85 6.05 -4.75 6 -4.65 5.75 -4.1 5.4 -3.7 5.1 -3.3 4.8 -3.1 4.5 -2.8 4.15 -2.65 3.85 -2.5 3.55 -2.4
L 3.9 -1.2
Q 4.2 -1.25 4.65 -1.45 5.15 -1.65 5.65 -2.1 6.15 -2.55 6.55 -3.15 6.95 -3.8 7.4 -4.7 7.8 -5.65 8.3 -6.95
L 10.4 -12.5 8.95 -12.5 7.4 -7.95
Q 7.25 -7.5 7.15 -7.1 7 -6.7 6.9 -6.35
L 6.85 -6.35
Q 6.75 -6.7 6.65 -7.1 6.5 -7.5 6.4 -7.9
L 4.7 -12.5 Z"/>
</g>
</defs>

<g transform="matrix( 1, 0, 0, 1, 0,0) ">
<g transform="matrix( 1, 0, 0, 1, 24,24) ">
<use xlink:href="#strB2_0_Layer0_0_FILL"/>
</g>

<g transform="matrix( 1, 0, 0, 1, 24,22) ">
<use xlink:href="#strB2_0_Layer0_1_FILL"/>
</g>
</g>
</svg>
