
<svg xmlns="http://www.w3.org/2000/svg" version="1.1" xmlns:xlink="http://www.w3.org/1999/xlink" preserveAspectRatio="none" x="0px" y="0px" width="48px" height="48px" viewBox="0 0 48 48">
<defs>
<g id="strC1_0_Layer0_0_FILL">
<path fill="#FFFFFF" fill-opacity="0" stroke="none" d="
M -24 -24
L -24 24 24 24 24 -24 -24 -24 Z"/>
</g>

<g id="strC1_0_Layer0_1_FILL">
<path fill="#000000" stroke="none" d="
M -14 -11.5
L -15.05 -9.85
Q -15.25 -9.55 -15.45 -9.2 -15.65 -8.9 -15.85 -8.55
L -15.9 -8.55
Q -16.1 -8.9 -16.25 -9.2 -16.45 -9.5 -16.65 -9.85
L -17.75 -11.5 -19.35 -11.5 -16.7 -7.7 -19.45 -3.75 -17.9 -3.75 -16.8 -5.5
Q -16.6 -5.85 -16.35 -6.15 -16.15 -6.5 -16 -6.85
L -15.95 -6.85
Q -15.75 -6.5 -15.55 -6.15 -15.35 -5.85 -15.1 -5.5
L -14 -3.75 -12.4 -3.75 -15.1 -7.75 -12.45 -11.5 -14 -11.5
M 10.9 8.9
Q 10.7 8.25 10.5 7.6
L 7.75 0.15 5.25 0.15 9.9 11.75
Q 9.95 12 10 12.15 10.05 12.25 10.05 12.35 10.05 12.45 10 12.6 9.95 12.75 9.85 12.9 9.45 13.8 8.95 14.45 8.4 15.1 7.95 15.45 7.4 15.9 6.9 16.15 6.35 16.45 5.95 16.55
L 6.5 18.5
Q 6.95 18.45 7.7 18.1 8.45 17.75 9.3 17 10.1 16.35 10.75 15.35 11.45 14.3 12.1 12.8 12.8 11.3 13.65 9.15
L 17.05 0.15 14.65 0.15 12.15 7.55
Q 11.9 8.25 11.7 8.95 11.5 9.6 11.35 10.2
L 11.3 10.2
Q 11.15 9.6 10.9 8.9
M 5.4 -12
L 20 -12 20 -14 4 -14 4 -13.9 -6.4 12.15 -12.8 -1.3 -12.9 -1.25 -12.95 -1.3 -19 1.65 -18.1 3.45 -14.2 1.55 -7.7 15.3 -5.55 15.3 5.4 -12 Z"/>
</g>
</defs>

<g transform="matrix( 1, 0, 0, 1, 0,0) ">
<g transform="matrix( 1, 0, 0, 1, 24,24) ">
<use xlink:href="#strC1_0_Layer0_0_FILL"/>
</g>

<g transform="matrix( 1, 0, 0, 1, 24,24) ">
<use xlink:href="#strC1_0_Layer0_1_FILL"/>
</g>
</g>
</svg>
