
<svg xmlns="http://www.w3.org/2000/svg" version="1.1" xmlns:xlink="http://www.w3.org/1999/xlink" preserveAspectRatio="none" x="0px" y="0px" width="48px" height="48px" viewBox="0 0 48 48">
<defs>
<g id="strC2_0_Layer0_0_FILL">
<path fill="#FFFFFF" fill-opacity="0" stroke="none" d="
M -24 -24
L -24 24 24 24 24 -24 -24 -24 Z"/>
</g>

<g id="strC2_0_Layer0_1_FILL">
<path fill="#000000" stroke="none" d="
M 11.05 4.95
Q 10.75 4.4 10.4 3.9 10.1 3.4 9.75 2.85
L 7.95 0.15 5.4 0.15 9.7 6.35 5.2 12.75 7.75 12.75 9.55 9.9
Q 9.9 9.35 10.25 8.85 10.55 8.3 10.9 7.75
L 10.95 7.75
Q 11.25 8.3 11.6 8.85 11.9 9.35 12.3 9.9
L 14.15 12.75 16.75 12.75 12.3 6.25 16.6 0.15 14.15 0.15 12.35 2.85
Q 12.05 3.35 11.75 3.85 11.4 4.35 11.1 4.95
L 11.05 4.95
M 5.4 -12
L 20 -12 20 -14 4 -14 4 -13.9 -6.4 12.15 -12.8 -1.3 -12.9 -1.25 -12.95 -1.3 -19 1.65 -18.1 3.45 -14.2 1.55 -7.7 15.3 -5.55 15.3 5.4 -12 Z"/>
</g>
</defs>

<g transform="matrix( 1, 0, 0, 1, 0,0) ">
<g transform="matrix( 1, 0, 0, 1, 24,24) ">
<use xlink:href="#strC2_0_Layer0_0_FILL"/>
</g>

<g transform="matrix( 1, 0, 0, 1, 24,24) ">
<use xlink:href="#strC2_0_Layer0_1_FILL"/>
</g>
</g>
</svg>
