
<svg xmlns="http://www.w3.org/2000/svg" version="1.1" xmlns:xlink="http://www.w3.org/1999/xlink" preserveAspectRatio="none" x="0px" y="0px" width="48px" height="48px" viewBox="0 0 48 48">
<defs>
<g id="strD2_0_Layer0_0_FILL">
<path fill="#FFFFFF" fill-opacity="0" stroke="none" d="
M -24 -24
L -24 24 24 24 24 -24 -24 -24 Z"/>
</g>

<g id="strD2_0_Layer0_1_FILL">
<path fill="#000000" stroke="none" d="
M -8.55 -11.75
L -13.25 -11.75 -13.25 12.4 -8.55 12.4 -8.55 10.7 -11.25 10.7 -11.25 -10.05 -8.55 -10.05 -8.55 -11.75
M 1.35 -1.15
Q 1.05 -0.65 0.75 -0.15 0.4 0.35 0.1 0.95
L 0.05 0.95
Q -0.25 0.4 -0.6 -0.1 -0.9 -0.6 -1.25 -1.15
L -3.05 -3.85 -5.6 -3.85 -1.3 2.35 -5.8 8.75 -3.25 8.75 -1.45 5.9
Q -1.1 5.35 -0.75 4.85 -0.45 4.3 -0.1 3.75
L -0.05 3.75
Q 0.25 4.3 0.6 4.85 0.9 5.35 1.3 5.9
L 3.15 8.75 5.75 8.75 1.3 2.25 5.6 -3.85 3.15 -3.85 1.35 -1.15
M 8.95 -10.05
L 11.6 -10.05 11.6 10.7 8.95 10.7 8.95 12.4 13.65 12.4 13.65 -11.75 8.95 -11.75 8.95 -10.05 Z"/>
</g>
</defs>

<g transform="matrix( 1, 0, 0, 1, 0,0) ">
<g transform="matrix( 1, 0, 0, 1, 24,24) ">
<use xlink:href="#strD2_0_Layer0_0_FILL"/>
</g>

<g transform="matrix( 1, 0, 0, 1, 24,24) ">
<use xlink:href="#strD2_0_Layer0_1_FILL"/>
</g>
</g>
</svg>
