
<svg xmlns="http://www.w3.org/2000/svg" version="1.1" xmlns:xlink="http://www.w3.org/1999/xlink" preserveAspectRatio="none" x="0px" y="0px" width="48px" height="48px" viewBox="0 0 48 48">
<defs>
<g id="strE4_0_Layer0_0_FILL">
<path fill="#FFFFFF" fill-opacity="0" stroke="none" d="
M -24 -24
L -24 24 24 24 24 -24 -24 -24 Z"/>
</g>

<g id="strE4_0_Layer0_1_FILL">
<path fill="#000000" stroke="none" d="
M -14.05 -3.85
L -16.6 -3.85 -12.3 2.35 -16.8 8.75 -14.25 8.75 -12.45 5.9
Q -12.1 5.35 -11.75 4.85 -11.45 4.3 -11.1 3.75
L -11.05 3.75
Q -10.75 4.3 -10.4 4.85 -10.1 5.35 -9.7 5.9
L -7.85 8.75 -5.25 8.75 -9.7 2.25 -5.4 -3.85 -7.85 -3.85 -9.65 -1.15
Q -9.95 -0.65 -10.25 -0.15 -10.6 0.35 -10.9 0.95
L -10.95 0.95
Q -11.25 0.4 -11.6 -0.1 -11.9 -0.6 -12.25 -1.15
L -14.05 -3.85
M -23.75 -3.4
Q -24 -1.7 -24 -0.05 -24 2.3 -23.6 4.55 -23.15 6.8 -22.1 8.8 -21.05 10.75 -19.2 12.3 -18.85 12.2 -18.5 12.05 -18.15 11.9 -17.8 11.8 -19.35 10.15 -20.25 8.25 -21.15 6.3 -21.5 4.2 -21.8 2.05 -21.8 -0.15 -21.8 -2.4 -21.5 -4.4 -21.15 -6.4 -20.25 -8.2 -19.4 -10.05 -17.85 -11.65 -18.15 -11.8 -18.5 -11.9 -18.8 -12.05 -19.15 -12.15 -20.55 -11.2 -21.5 -9.8 -22.45 -8.4 -23 -6.75 -23.55 -5.1 -23.75 -3.4
M 0.15 10.1
Q 0.65 9.05 1.05 7.8 1.5 6.6 1.85 5.45
L -0.7 5.75
Q -0.85 6.7 -1.1 7.85 -1.35 9 -1.65 10.05 -1.95 11.15 -2.25 11.95
L -0.65 11.8
Q -0.3 11.15 0.15 10.1
M 19.75 -11.5
L 18 -11.5 22.25 -0.05 22.25 0 18 11.5 19.75 11.5 24 0.4 24 -0.35 19.75 -11.5
M 0.4 -0.15
Q 1.1 -0.15 1.5 -0.6 1.9 -1.05 1.95 -1.75 1.9 -2.5 1.5 -2.95 1.1 -3.35 0.4 -3.4 -0.3 -3.35 -0.7 -2.95 -1.15 -2.5 -1.15 -1.75 -1.15 -1.05 -0.7 -0.6 -0.3 -0.15 0.4 -0.15
M 17.05 -3.85
L 14.65 -3.85 12.15 3.55
Q 11.9 4.25 11.7 4.95 11.5 5.6 11.35 6.2
L 11.3 6.2
Q 11.15 5.6 10.9 4.9 10.7 4.25 10.5 3.6
L 7.75 -3.85 5.25 -3.85 9.9 7.75
Q 9.95 8 10 8.15 10.05 8.25 10.05 8.35 10.05 8.45 10 8.6 9.95 8.75 9.85 8.9 9.45 9.8 8.95 10.45 8.4 11.1 7.95 11.45 7.4 11.9 6.9 12.15 6.35 12.45 5.95 12.55
L 6.5 14.5
Q 6.95 14.45 7.7 14.1 8.45 13.75 9.3 13 10.1 12.35 10.75 11.35 11.45 10.3 12.1 8.8 12.8 7.3 13.65 5.15
L 17.05 -3.85 Z"/>
</g>
</defs>

<g transform="matrix( 1, 0, 0, 1, 0,0) ">
<g transform="matrix( 1, 0, 0, 1, 24,24) ">
<use xlink:href="#strE4_0_Layer0_0_FILL"/>
</g>

<g transform="matrix( 1, 0, 0, 1, 24,24) ">
<use xlink:href="#strE4_0_Layer0_1_FILL"/>
</g>
</g>
</svg>
