
<svg xmlns="http://www.w3.org/2000/svg" version="1.1" xmlns:xlink="http://www.w3.org/1999/xlink" preserveAspectRatio="none" x="0px" y="0px" width="48px" height="48px" viewBox="0 0 48 48">
<defs>
<g id="strD1_0_Layer0_0_FILL">
<path fill="#FFFFFF" fill-opacity="0" stroke="none" d="
M -24 -24
L -24 24 24 24 24 -24 -24 -24 Z"/>
</g>

<g id="strD1_0_Layer0_1_FILL">
<path fill="#000000" stroke="none" d="
M -12.6 -3.4
Q -12.85 -1.7 -12.85 -0.05 -12.85 2.3 -12.45 4.55 -12 6.8 -10.95 8.8 -9.9 10.75 -8.05 12.3 -7.7 12.2 -7.35 12.05 -7 11.9 -6.65 11.8 -8.2 10.15 -9.1 8.25 -10 6.3 -10.35 4.2 -10.65 2.05 -10.65 -0.15 -10.65 -2.4 -10.35 -4.4 -10 -6.4 -9.1 -8.2 -8.25 -10.05 -6.7 -11.65 -7 -11.8 -7.35 -11.9 -7.65 -12.05 -8 -12.15 -9.4 -11.2 -10.35 -9.8 -11.3 -8.4 -11.85 -6.75 -12.4 -5.1 -12.6 -3.4
M 6.8 -11.65
Q 8.3 -10.2 9.15 -8.4 10.05 -6.6 10.45 -4.6 10.85 -2.6 10.8 -0.6 10.85 1.85 10.6 4 10.35 6.1 9.5 8.05 8.65 9.95 6.85 11.8 7.2 11.9 7.55 12.05 7.85 12.15 8.2 12.3 10.05 10.75 11.1 8.85 12.15 6.95 12.6 4.8 13 2.6 13 0.25 13 -2.1 12.6 -4.35 12.15 -6.6 11.1 -8.6 10.05 -10.6 8.2 -12.2 7.85 -12.05 7.5 -11.95 7.15 -11.8 6.8 -11.65
M 1.35 -1.15
Q 1.05 -0.65 0.75 -0.15 0.4 0.35 0.1 0.95
L 0.05 0.95
Q -0.25 0.4 -0.6 -0.1 -0.9 -0.6 -1.25 -1.15
L -3.05 -3.85 -5.6 -3.85 -1.3 2.35 -5.8 8.75 -3.25 8.75 -1.45 5.9
Q -1.1 5.35 -0.75 4.85 -0.45 4.3 -0.1 3.75
L -0.05 3.75
Q 0.25 4.3 0.6 4.85 0.9 5.35 1.3 5.9
L 3.15 8.75 5.75 8.75 1.3 2.25 5.6 -3.85 3.15 -3.85 1.35 -1.15 Z"/>
</g>
</defs>

<g transform="matrix( 1, 0, 0, 1, 0,0) ">
<g transform="matrix( 1, 0, 0, 1, 24,24) ">
<use xlink:href="#strD1_0_Layer0_0_FILL"/>
</g>

<g transform="matrix( 1, 0, 0, 1, 24,24) ">
<use xlink:href="#strD1_0_Layer0_1_FILL"/>
</g>
</g>
</svg>
