
<svg xmlns="http://www.w3.org/2000/svg" version="1.1" xmlns:xlink="http://www.w3.org/1999/xlink" preserveAspectRatio="none" x="0px" y="0px" width="48px" height="48px" viewBox="0 0 48 48">
<defs>
<g id="strF3_0_Layer0_0_FILL">
<path fill="#FFFFFF" fill-opacity="0" stroke="none" d="
M -24 -24
L -24 24 24 24 24 -24 -24 -24 Z"/>
</g>

<g id="strF3_0_Layer0_1_FILL">
<path fill="#000000" stroke="none" d="
M -15.2 -5.7
L -16.85 -5.7 -16.85 -4.2 -15.2 -4.2 -15.2 1.6
Q -15.2 2.5 -15.05 3.2 -14.85 3.9 -14.45 4.35 -14.1 4.75 -13.6 4.95 -13.05 5.15 -12.35 5.15 -11.8 5.15 -11.35 5.1 -10.95 5 -10.65 4.9
L -10.75 3.45
Q -10.9 3.5 -11.2 3.55 -11.5 3.6 -11.85 3.6 -12.65 3.6 -13 3.05 -13.3 2.5 -13.3 1.5
L -13.3 -4.2 -10.55 -4.2 -10.55 -5.7 -13.3 -5.7 -13.3 -8.75 -15.2 -8.25 -15.2 -5.7
M 9.5 -5.7
L 7.35 -5.7 10.95 -0.5 7.2 4.95 9.3 4.95 10.85 2.55
Q 11.15 2.1 11.45 1.65 11.7 1.2 11.95 0.7
L 12 0.7
Q 12.3 1.2 12.6 1.65 12.85 2.1 13.15 2.55
L 14.7 4.95 16.95 4.95 13.2 -0.55 16.8 -5.7 14.7 -5.7 13.25 -3.45
Q 12.95 -3 12.7 -2.55 12.45 -2.15 12.2 -1.65
L 12.1 -1.65
Q 11.85 -2.1 11.6 -2.55 11.35 -2.95 11.05 -3.4
L 9.5 -5.7
M 0.75 -4.45
Q 0.8 -5.15 0.8 -5.7
L -0.85 -5.7 -0.95 -4.1 -1 -4.1
Q -1.25 -4.55 -1.65 -4.95 -2.1 -5.35 -2.75 -5.65 -3.4 -5.9 -4.3 -5.95 -5.55 -5.95 -6.65 -5.25 -7.75 -4.6 -8.4 -3.35 -9.1 -2.1 -9.1 -0.3 -9.1 1.2 -8.5 2.35 -7.95 3.55 -6.95 4.2 -5.9 4.9 -4.6 4.9 -3.35 4.9 -2.5 4.4 -1.65 3.9 -1.2 3.1
L -1.15 3.1 -1.15 4.3
Q -1.15 5.65 -1.6 6.5 -2.05 7.3 -2.8 7.65 -3.6 8.05 -4.6 8.05 -5.6 8 -6.35 7.8 -7.2 7.55 -7.7 7.2
L -8.2 8.65
Q -7.5 9.1 -6.6 9.3 -5.65 9.55 -4.65 9.55 -3.6 9.55 -2.6 9.25 -1.55 9 -0.8 8.3 0 7.6 0.35 6.4 0.75 5.25 0.75 3.4
L 0.75 -2.75
Q 0.75 -3.75 0.75 -4.45
M -7.15 -0.4
Q -7.15 -2.25 -6.25 -3.35 -5.4 -4.4 -4 -4.4 -2.9 -4.4 -2.25 -3.8 -1.55 -3.25 -1.3 -2.4 -1.2 -2.15 -1.2 -1.95 -1.15 -1.75 -1.15 -1.5
L -1.15 0.4
Q -1.15 0.65 -1.2 0.95 -1.25 1.2 -1.3 1.45 -1.65 2.4 -2.4 2.9 -3.1 3.4 -4 3.45 -5.05 3.4 -5.75 2.9 -6.45 2.4 -6.8 1.55 -7.15 0.65 -7.15 -0.4 Z"/>
</g>
</defs>

<g transform="matrix( 1, 0, 0, 1, 0,0) ">
<g transform="matrix( 1, 0, 0, 1, 24,24) ">
<use xlink:href="#strF3_0_Layer0_0_FILL"/>
</g>

<g transform="matrix( 1, 0, 0, 1, 24,24) ">
<use xlink:href="#strF3_0_Layer0_1_FILL"/>
</g>
</g>
</svg>
