
<svg xmlns="http://www.w3.org/2000/svg" version="1.1" xmlns:xlink="http://www.w3.org/1999/xlink" preserveAspectRatio="none" x="0px" y="0px" width="48px" height="48px" viewBox="0 0 48 48">
<defs>
<g id="strF2_0_Layer0_0_FILL">
<path fill="#FFFFFF" fill-opacity="0" stroke="none" d="
M -24 -24
L -24 24 24 24 24 -24 -24 -24 Z"/>
</g>

<g id="strF2_0_Layer0_1_FILL">
<path fill="#000000" stroke="none" d="
M -11.35 -3.35
Q -12.05 -2.1 -12.05 -0.3 -12.05 1.4 -11.35 2.65 -10.7 3.85 -9.55 4.5 -8.4 5.2 -6.95 5.2 -5.65 5.2 -4.45 4.6 -3.25 4 -2.45 2.75 -1.7 1.5 -1.65 -0.45 -1.65 -2.1 -2.3 -3.3 -2.95 -4.55 -4.1 -5.25 -5.25 -5.9 -6.8 -5.95 -8.25 -5.9 -9.45 -5.25 -10.65 -4.6 -11.35 -3.35
M -8.7 -3.85
Q -7.95 -4.45 -6.85 -4.5 -5.7 -4.45 -5 -3.85 -4.3 -3.2 -3.95 -2.25 -3.65 -1.3 -3.65 -0.4 -3.65 0.8 -4.05 1.75 -4.5 2.65 -5.2 3.2 -5.95 3.75 -6.85 3.75 -7.85 3.75 -8.55 3.2 -9.3 2.65 -9.7 1.75 -10.1 0.85 -10.1 -0.35 -10.1 -1.4 -9.75 -2.3 -9.4 -3.25 -8.7 -3.85
M -21.2 -3.2
Q -21.9 -1.9 -21.9 -0.25 -21.9 1.35 -21.25 2.6 -20.6 3.8 -19.4 4.5 -18.25 5.15 -16.6 5.15 -15.55 5.15 -14.75 4.95 -13.95 4.75 -13.55 4.55
L -13.9 3.1
Q -14.3 3.3 -14.85 3.45 -15.45 3.6 -16.25 3.65 -17.35 3.65 -18.15 3.15 -19 2.65 -19.45 1.8 -19.95 0.9 -19.95 -0.35 -19.95 -1.45 -19.55 -2.4 -19.1 -3.3 -18.25 -3.85 -17.4 -4.35 -16.2 -4.35 -15.4 -4.35 -14.85 -4.2 -14.3 -4.05 -13.95 -3.85
L -13.5 -5.35
Q -13.9 -5.55 -14.6 -5.75 -15.35 -5.9 -16.2 -5.9 -17.95 -5.9 -19.25 -5.15 -20.5 -4.45 -21.2 -3.2
M 15.05 -5.7
L 12.9 -5.7 16.5 -0.5 12.75 4.95 14.85 4.95 16.4 2.55
Q 16.7 2.1 17 1.65 17.25 1.2 17.5 0.7
L 17.55 0.7
Q 17.85 1.2 18.15 1.65 18.4 2.1 18.7 2.55
L 20.25 4.95 22.5 4.95 18.75 -0.55 22.35 -5.7 20.25 -5.7 18.8 -3.45
Q 18.5 -3 18.25 -2.55 18 -2.15 17.75 -1.65
L 17.65 -1.65
Q 17.4 -2.1 17.15 -2.55 16.9 -2.95 16.6 -3.4
L 15.05 -5.7
M 0.35 -2.8
Q 0.35 -1.85 1.05 -1.1 1.75 -0.3 3.2 0.2 4.25 0.6 4.7 1.05 5.15 1.5 5.15 2.15 5.15 2.85 4.65 3.25 4.15 3.75 3.1 3.75 2.35 3.75 1.65 3.5 1 3.25 0.55 2.95
L 0.05 4.45
Q 0.65 4.8 1.4 4.95 2.2 5.15 3.05 5.15 4.95 5.15 6 4.25 7 3.4 7.05 1.95 7.05 0.8 6.3 0.05 5.6 -0.7 4.25 -1.25 3.2 -1.6 2.7 -2 2.2 -2.4 2.2 -3.05 2.2 -3.65 2.7 -4.05 3.15 -4.45 4 -4.5 4.75 -4.45 5.3 -4.3 5.85 -4.05 6.15 -3.85
L 6.65 -5.3
Q 6.2 -5.55 5.55 -5.75 4.85 -5.9 4.05 -5.95 2.9 -5.9 2.1 -5.5 1.25 -5.1 0.8 -4.4 0.35 -3.7 0.35 -2.8 Z"/>
</g>
</defs>

<g transform="matrix( 1, 0, 0, 1, 0,0) ">
<g transform="matrix( 1, 0, 0, 1, 24,24) ">
<use xlink:href="#strF2_0_Layer0_0_FILL"/>
</g>

<g transform="matrix( 1, 0, 0, 1, 24,24) ">
<use xlink:href="#strF2_0_Layer0_1_FILL"/>
</g>
</g>
</svg>
