
<svg xmlns="http://www.w3.org/2000/svg" version="1.1" xmlns:xlink="http://www.w3.org/1999/xlink" preserveAspectRatio="none" x="0px" y="0px" width="48px" height="48px" viewBox="0 0 48 48">
<defs>
<g id="str_a1_0_Layer0_0_FILL">
<path fill="#FFFFFF" fill-opacity="0" stroke="none" d="
M -24 -24
L -24 24 24 24 24 -24 -24 -24 Z"/>
</g>

<g id="str_a1_0_Layer0_1_FILL">
<path fill="#000000" stroke="none" d="
M -8 1
L 8 1 8 -1 -8 -1 -8 1
M -2.85 7.3
L -4.95 7.3 -1 17.1
Q -0.95 17.3 -0.9 17.4 -0.9 17.55 -0.9 17.65 -0.9 17.7 -0.95 17.8 -0.95 17.95 -1.05 18.1 -1.4 18.85 -1.8 19.4 -2.25 19.95 -2.65 20.25 -3.1 20.6 -3.55 20.85 -4 21.1 -4.35 21.2
L -3.9 22.8
Q -3.5 22.75 -2.85 22.45 -2.25 22.2 -1.5 21.55 -0.85 21 -0.25 20.15 0.3 19.25 0.9 18 1.45 16.7 2.15 14.9
L 5.05 7.3 3 7.3 0.9 13.55
Q 0.7 14.15 0.55 14.7 0.35 15.3 0.2 15.8
L 0.15 15.8
Q 0.05 15.3 -0.15 14.7 -0.35 14.15 -0.5 13.6
L -2.85 7.3
M 0.1 -13.65
L 0 -13.65
Q -0.25 -14.1 -0.5 -14.55 -0.75 -14.95 -1.05 -15.4
L -2.6 -17.7 -4.75 -17.7 -1.15 -12.5 -4.9 -7.05 -2.8 -7.05 -1.25 -9.45
Q -0.95 -9.9 -0.65 -10.35 -0.4 -10.8 -0.15 -11.3
L -0.1 -11.3
Q 0.2 -10.8 0.5 -10.35 0.75 -9.9 1.05 -9.45
L 2.6 -7.05 4.85 -7.05 1.1 -12.55 4.7 -17.7 2.6 -17.7 1.15 -15.45
Q 0.85 -15 0.6 -14.55 0.35 -14.15 0.1 -13.65 Z"/>
</g>
</defs>

<g transform="matrix( 1, 0, 0, 1, 0,0) ">
<g transform="matrix( 1, 0, 0, 1, 24,24) ">
<use xlink:href="#str_a1_0_Layer0_0_FILL"/>
</g>

<g transform="matrix( 1, 0, 0, 1, 24,24) ">
<use xlink:href="#str_a1_0_Layer0_1_FILL"/>
</g>
</g>
</svg>
